<svg width="170" height="40" viewBox="0 0 170 40" fill="none" xmlns="http://www.w3.org/2000/svg">
<g id="Group 78 Copy">
<path id="Fill 62" fill-rule="evenodd" clip-rule="evenodd" d="M164.534 11.1525C162.8 12.8871 159.978 12.8868 158.244 11.1525C157.404 10.3123 156.941 9.19549 156.941 8.00754C156.941 6.81959 157.404 5.70247 158.244 4.86253C159.978 3.12799 162.8 3.12831 164.534 4.86253C165.374 5.70247 165.837 6.81959 165.837 8.00754C165.837 9.19549 165.374 10.3123 164.534 11.1525ZM167.054 2.34238C163.931 -0.780632 158.848 -0.780956 155.724 2.34238C152.601 5.46637 152.601 10.549 155.724 13.6727C157.286 15.2342 159.338 16.0153 161.389 16.0153C163.44 16.0153 165.492 15.2342 167.054 13.6727C170.178 10.549 170.178 5.46637 167.054 2.34238Z" fill="black"/>
<path id="Fill 64" fill-rule="evenodd" clip-rule="evenodd" d="M98.0226 36.1845C93.4063 36.1845 89.7904 32.371 89.7904 27.5028V27.4129C89.7904 22.489 93.2909 18.7764 97.9327 18.7764C102.574 18.7764 106.21 22.6093 106.21 27.5028V27.593C106.21 32.491 102.69 36.1845 98.0226 36.1845ZM98.0226 15.0059C91.0146 15.0059 85.5254 20.4951 85.5254 27.5028V27.593C85.5254 34.5499 90.9751 40 97.9327 40C104.965 40 110.475 34.5105 110.475 27.5028V27.4129C110.475 20.4556 105.005 15.0059 98.0226 15.0059Z" fill="#3A337C"/>
<path id="Fill 66" fill-rule="evenodd" clip-rule="evenodd" d="M124.864 18.8213C129.399 18.8213 132.691 22.4531 132.691 27.4575V27.5477C132.691 32.6065 129.472 36.1396 124.864 36.1396C120.906 36.1396 116.811 32.9089 116.811 27.5028V27.4125C116.811 23.2808 119.89 18.8213 124.864 18.8213ZM125.493 15.0055C123.285 15.0055 120.061 15.4874 116.946 19.4501V6.45703H112.771V39.4602H116.946V35.7411C119.164 38.5384 122.034 39.9551 125.493 39.9551C128.418 39.9551 131.302 38.7448 133.407 36.6351C135.026 35.0115 136.956 32.1087 136.956 27.5028V27.4125C136.956 19.354 131.05 15.0055 125.493 15.0055Z" fill="#3A337C"/>
<path id="Fill 68" fill-rule="evenodd" clip-rule="evenodd" d="M149.011 25.4859L148.917 25.4591C145.831 24.5761 142.915 23.7426 142.915 21.8376V21.7471C142.915 19.9783 144.731 18.7424 147.332 18.7424C149.597 18.7424 152.129 19.5222 154.461 20.9375L154.767 21.1235L156.837 17.8996L156.52 17.7029C153.878 16.0632 150.479 15.0845 147.427 15.0845C142.253 15.0845 138.639 17.9727 138.639 22.1071V22.197C138.639 26.735 143.047 27.9773 146.936 29.073L147.099 29.1186C150.636 29.9987 152.992 30.9709 152.992 32.8539V32.9441C152.992 34.9604 151.127 36.2635 148.24 36.2635C145.406 36.2635 142.519 35.2615 139.891 33.3649L139.599 33.1544L137.295 36.2091L137.59 36.4304C140.51 38.6164 144.419 39.9214 148.049 39.9214C153.534 39.9214 157.22 36.9727 157.22 32.5838V32.4942C157.22 27.8003 152.279 26.4073 149.011 25.4859Z" fill="#3A337C"/>
<path id="Fill 70" fill-rule="evenodd" clip-rule="evenodd" d="M18.8067 14.0365L22.8275 9.6156V6.60999H2.87398V10.3702H17.1879L9.66304 18.7036H14.562L15.9233 17.2071C20.1557 18.2453 23.1881 21.9767 23.1881 26.2472C23.1881 31.3936 18.8662 35.5803 13.5539 35.5803C8.24158 35.5803 3.91994 31.3936 3.91994 26.2472H0C0 33.5554 6.08011 39.5006 13.5539 39.5006C21.028 39.5006 27.1081 33.5554 27.1081 26.2472C27.1081 20.8553 23.738 16.0715 18.8067 14.0365Z" fill="black"/>
<path id="Fill 72" fill-rule="evenodd" clip-rule="evenodd" d="M69.6682 12.9935C67.63 12.9935 65.6425 13.4482 63.8404 14.2895L64.4077 10.1506H74.6959L77.3616 6.56116H61.1362L59.5123 18.746H63.9377C65.583 17.5667 67.5889 16.9137 69.6682 16.9137C74.9805 16.9137 79.3025 21.1005 79.3025 26.2472C79.3025 31.3939 74.9805 35.5807 69.6682 35.5807C64.3559 35.5807 60.0343 31.3939 60.0343 26.2472H56.114C56.114 33.5554 62.1944 39.5009 69.6682 39.5009C77.142 39.5009 83.2224 33.5554 83.2224 26.2472C83.2224 18.939 77.142 12.9935 69.6682 12.9935Z" fill="black"/>
<path id="Fill 74" fill-rule="evenodd" clip-rule="evenodd" d="M41.698 35.5807C36.3857 35.5807 32.0637 31.3939 32.0637 26.2476C32.0637 21.1005 36.3857 16.9138 41.698 16.9138C47.0103 16.9138 51.3319 21.1005 51.3319 26.2476C51.3319 31.3939 47.0103 35.5807 41.698 35.5807ZM41.698 12.9935C41.3869 12.9935 41.0793 13.0077 40.7733 13.0281L46.6856 6.55957H41.5188L31.588 17.4248C31.5889 17.4261 31.5899 17.4271 31.5909 17.4283C29.4492 19.7729 28.1438 22.8635 28.1438 26.2476C28.1438 33.5554 34.2242 39.501 41.698 39.501C49.1718 39.501 55.2522 33.5554 55.2522 26.2476C55.2522 18.9391 49.1718 12.9935 41.698 12.9935Z" fill="black"/>
<path id="Fill 76" fill-rule="evenodd" clip-rule="evenodd" d="M69.6681 39.501C64.642 39.501 60.0532 36.8029 57.6929 32.46L61.137 30.5883C62.8108 33.6676 66.0797 35.5807 69.6681 35.5807C74.9804 35.5807 79.3023 31.3939 79.3023 26.2472V6.57898H83.2223V26.2472C83.2223 33.5554 77.1419 39.501 69.6681 39.501Z" fill="#3A337C"/>
</g>
</svg>
