<svg width="35" height="34" viewBox="0 0 35 34" fill="none" xmlns="http://www.w3.org/2000/svg">
<g id="construction">
<path id="Shape" fill-rule="evenodd" clip-rule="evenodd" d="M33.363 22.0895H33.545C34.0806 22.0895 34.5164 22.5253 34.5164 23.0609V24.0182C34.5164 24.5538 34.0806 24.9895 33.545 24.9895H23.0257C22.7446 24.9895 22.5168 24.7616 22.5168 24.4806C22.5168 24.1996 22.7446 23.9717 23.0257 23.9717H33.4985V23.1073H19.6709V23.9717H20.99C21.271 23.9717 21.4988 24.1996 21.4988 24.4806C21.4988 24.7616 21.271 24.9895 20.99 24.9895H19.6246C19.0889 24.9895 18.6532 24.5538 18.6532 24.0182V23.0609C18.6532 22.5253 19.0889 22.0895 19.6246 22.0895H20.0984V20.9628C20.0984 20.4454 20.5193 20.0245 21.0367 20.0245H22.0587L26.1681 15.9151C26.2049 15.8783 26.2459 15.8484 26.2895 15.8253V10.2413H21.0279V12.7793C21.0279 13.5065 20.4363 14.0982 19.7091 14.0982H15.8048C15.0776 14.0982 14.4859 13.5065 14.4859 12.7793V10.2413H11.6718L12.276 30.3417H13.2839C14.2882 30.3417 15.1052 31.1587 15.1052 32.1631V33.4911C15.1052 33.7722 14.8774 34 14.5963 34H8.47892C8.19788 34 7.97005 33.7722 7.97005 33.4911C7.97005 33.2101 8.19788 32.9823 8.47892 32.9823H14.0875V32.1631C14.0875 31.7199 13.727 31.3594 13.2839 31.3594H8.34688H6.84239C6.39927 31.3594 6.03879 31.7199 6.03879 32.1631V32.9823H6.44351C6.72454 32.9823 6.95238 33.2101 6.95238 33.4911C6.95238 33.7722 6.72454 34 6.44351 34H5.52992C5.24889 34 5.02105 33.7722 5.02105 33.4911V32.1631C5.02105 31.1587 5.83809 30.3417 6.84239 30.3417H7.30668L7.91081 10.2413H4.68187V10.2828C4.68187 10.9547 4.13528 11.5013 3.46343 11.5013H1.21844C0.546593 11.5013 0 10.9547 0 10.2828V6.63701C0 5.96517 0.546593 5.41858 1.21844 5.41864H3.46343C4.12476 5.41864 4.66355 5.94855 4.68031 6.60587H8.11409L8.65064 0.464564C8.67364 0.201716 8.89375 0 9.15761 0H10.4102H10.4152H10.4227L10.4283 0.000243665L10.4329 0.000474945C10.4448 0.000678492 10.4566 0.00108559 10.4685 0.00217118C10.4724 0.00251707 10.4763 0.00305584 10.4801 0.00359434L10.4801 0.00359491L10.4866 0.00447805L10.4893 0.00481001C10.4982 0.00591466 10.5071 0.00701931 10.516 0.0086847C10.5248 0.0103078 10.5334 0.0124757 10.5421 0.0146382L10.5465 0.015741L10.5526 0.0171817L10.5526 0.0171831C10.556 0.0179457 10.5594 0.0187061 10.5627 0.0196763C10.5796 0.0244936 10.5961 0.0301251 10.6122 0.0365707L27.1622 6.6058H28.2379C28.395 6.6058 28.5432 6.67833 28.6396 6.80229L30.6751 9.41998C30.7944 9.57339 30.8158 9.78135 30.7305 9.95593C30.6451 10.1306 30.4677 10.2412 30.2734 10.2412H27.3075V15.8678C27.3267 15.8822 27.3454 15.8976 27.3629 15.9151L31.4723 20.0245H32.4247C32.942 20.0245 33.363 20.4454 33.363 20.9628V22.0895ZM9.9564 1.01774H9.62394L9.1357 6.60587H10.4446L9.9564 1.01774ZM3.66413 10.2828C3.66413 10.3935 3.57409 10.4835 3.46343 10.4835H1.21844C1.10777 10.4835 1.01774 10.3935 1.01774 10.2828V6.63701C1.01774 6.52635 1.10777 6.43631 1.21844 6.43631H3.46343C3.57409 6.43631 3.66413 6.52635 3.66413 6.63701V7.11474V9.73243V10.2828ZM14.995 7.62361H4.68187H4.6818V9.22356H14.9949H20.5191H29.233L27.9889 7.62361H27.0665L27.0647 7.62374L27.0619 7.62361H17.0304C16.7494 7.62361 16.5216 7.39577 16.5216 7.11474C16.5216 6.83371 16.7494 6.60587 17.0304 6.60587H24.4036L11.0013 1.28601L11.4662 6.60587H14.995C15.276 6.60587 15.5038 6.83371 15.5038 7.11474C15.5038 7.39577 15.276 7.62361 14.995 7.62361ZM8.80717 14.2971L10.3429 15.409L8.7058 17.6701L8.80717 14.2971ZM11.0146 22.2484L8.89544 24.896L11.1432 26.5245L11.0146 22.2484ZM9.05306 18.9259L10.8406 16.4569L10.9562 20.3048L9.05306 18.9259ZM10.516 21.2426L8.63931 19.883L8.52363 23.7317L10.516 21.2426ZM10.516 27.3269L8.33365 30.0533L8.46033 25.8376L10.516 27.3269ZM10.6871 11.3483L9.19778 13.3235L10.781 14.4697L10.6871 11.3483ZM10.2471 10.2413L8.87434 12.062L8.92903 10.2413H10.2471ZM11.1909 28.1124L9.40648 30.3416H11.2579L11.1909 28.1124ZM20.0104 12.7793C20.0104 12.9454 19.8753 13.0805 19.7093 13.0805H15.805C15.639 13.0805 15.5039 12.9454 15.5039 12.7793V10.2413H20.0104V12.7793ZM27.3075 20.0245H30.0331L27.3075 17.2989V20.0245ZM26.2897 17.233V20.0245H23.4982L26.2897 17.233ZM32.3452 21.0422H21.1163V22.0895H32.3452V21.0422Z" fill="#3A337C"/>
</g>
</svg>
