<svg width="39" height="39" viewBox="0 0 39 39" fill="none" xmlns="http://www.w3.org/2000/svg">
<g id="fishing-rod">
<path id="Shape" fill-rule="evenodd" clip-rule="evenodd" d="M35.8149 23.3274L28.8313 3.0457C28.8353 2.88059 28.8106 2.71765 28.7563 2.55986C28.3611 1.41225 26.758 1.27532 26.1906 2.39L15.4815 24.3126C14.9235 24.2482 14.3403 24.5301 14.0682 25.0871L9.73039 33.9675C9.16608 35.018 9.58011 36.5084 10.7882 37.0967C11.9543 37.6618 13.3499 37.1499 13.8963 36.0258C14.0364 35.7375 17.1759 29.3124 17.3814 28.8918C18.7858 29.3974 20.3478 28.8843 21.1792 27.6501L21.999 28.0584L21.6243 28.8254C21.4421 29.1985 21.805 29.6016 22.1932 29.4679C22.3057 29.4292 22.4035 29.3476 22.4598 29.2323L23.6137 26.8705C23.7263 26.6399 23.6306 26.3619 23.3998 26.2495C23.1691 26.1373 22.8908 26.2331 22.7781 26.4636L22.407 27.2233L21.5841 26.8135C22.0756 25.2708 21.356 23.5981 19.8782 22.8982L20.3652 22.7305C22.5469 21.9793 23.7115 19.5954 22.9612 17.4165L22.6589 16.5384L23.5381 16.2356C25.7198 15.4844 26.8844 13.1006 26.1341 10.9216L25.8317 10.0435L26.711 9.74074C27.9529 9.3131 28.8645 8.35616 29.2816 7.20941L34.9357 23.63C33.9091 24.4469 34.4783 26.1018 35.7908 26.1134L36.4971 28.1647C36.6222 28.5279 36.4281 28.9252 36.0645 29.0504C35.7009 29.1756 35.3033 28.982 35.1783 28.6189L35.1027 28.3993C35.4909 28.2656 35.5287 27.7245 35.1555 27.5427L34.5646 27.2551C34.1938 27.0746 33.7865 27.4331 33.921 27.8239L34.299 28.9216C34.5908 29.769 35.5184 30.2207 36.3668 29.9285C37.2153 29.6364 37.6682 28.7093 37.3764 27.862L36.6701 25.8107C37.6966 24.9939 37.1274 23.339 35.8149 23.3274ZM27.0129 2.82415C27.1538 2.53469 27.4836 2.47784 27.7068 2.63599L27.8826 3.14635C27.882 3.14808 27.8819 3.14905 27.8818 3.14975L27.8818 3.15073C27.8823 3.1643 27.8755 3.17811 24.3165 10.462L24.3146 10.4659L24.3137 10.4678L24.3132 10.4688L24.313 10.4692C22.9378 13.2836 21.0327 17.1825 18.3937 22.5843C18.0078 22.595 17.6217 22.6736 17.2392 22.8317L27.0129 2.82415ZM11.1958 36.2616C11.9492 36.5925 12.7339 36.2871 13.0674 35.6044L16.5601 28.4559C15.5261 27.7017 15.0576 26.4382 15.2869 25.2346C15.1158 25.2477 14.9746 25.3489 14.9038 25.4939L11.9319 31.578L11.9279 31.5861C10.5926 34.3197 10.5544 34.3979 10.5542 34.3978L10.5542 34.3977C10.5543 34.3976 10.5544 34.3974 10.5541 34.3978C10.2137 35.1583 10.5441 35.9442 11.1958 36.2616ZM20.7379 26.3922L19.8482 25.9492C19.9752 24.9372 18.9896 24.1251 18.0108 24.4621C17.2836 24.7125 16.8954 25.5072 17.1455 26.2334C17.478 27.1989 18.7045 27.4858 19.4329 26.7806L20.338 27.2313C19.2301 28.7031 16.8927 28.3556 16.2851 26.5911C15.8683 25.3806 16.5153 24.0562 17.7274 23.6388C19.4681 23.0395 21.183 24.6152 20.7379 26.3922ZM18.0248 25.9307C18.1081 26.1728 18.3732 26.3018 18.6156 26.2184C18.858 26.1349 18.9874 25.87 18.904 25.6279C18.8207 25.3858 18.5556 25.2568 18.3132 25.3402C18.0708 25.4237 17.9414 25.6886 18.0248 25.9307ZM20.0628 21.8525L19.7295 21.9672L21.9673 17.3866L22.0819 17.7193C22.6654 19.4141 21.7597 21.2682 20.0628 21.8525ZM22.9025 15.4723L23.2357 15.3576C24.9326 14.7733 25.8383 12.9192 25.2548 11.2245L25.1402 10.8919L22.9025 15.4723ZM26.4085 8.8627L26.0756 8.97733L28.3132 4.39722L28.4277 4.72959C29.0112 6.42434 28.1055 8.2784 26.4085 8.8627ZM35.3632 24.8718C35.4465 25.1139 35.7116 25.243 35.954 25.1595C36.1964 25.076 36.3258 24.8112 36.2424 24.5691C36.1591 24.327 35.894 24.1979 35.6516 24.2814C35.4092 24.3648 35.2798 24.6297 35.3632 24.8718Z" fill="black"/>
</g>
</svg>
