<svg width="31" height="34" viewBox="0 0 31 34" fill="none" xmlns="http://www.w3.org/2000/svg">
<g id="food-service">
<circle id="Oval" cx="19.5995" cy="15.2932" r="0.66539" fill="black"/>
<path id="Shape" fill-rule="evenodd" clip-rule="evenodd" d="M28.5779 17.3781H28.7077C29.8084 17.3781 30.7038 18.2735 30.7038 19.3743C30.7038 20.475 29.8082 21.3705 28.7075 21.3705H22.6279C22.7139 21.9806 22.4336 22.5774 21.8897 22.9C19.6808 24.2104 16.369 26.4648 15.6466 26.9591C15 28.2432 13.8573 29.9563 11.4058 30.8239L6.93453 33.8858C6.64447 34.0844 6.23773 34.0173 6.0267 33.7366L3.68707 30.6245C3.45956 30.3218 3.53746 29.8762 3.85349 29.6686L5.88996 28.3301C5.91706 27.4948 6.18049 25.6068 7.9303 24.6472L8.50192 21.7893C8.53114 21.6434 8.5751 21.5035 8.63135 21.3706H1.99624C0.895488 21.3706 0 20.4751 0 19.3743C0 18.2736 0.895554 17.3781 1.99624 17.3781H2.12606V15.8876C2.12606 9.21619 7.09139 3.68369 13.5204 2.78906C13.4147 2.54588 13.3557 2.27787 13.3557 1.99624C13.3557 0.895488 14.2513 0 15.352 0C16.4527 0 17.3482 0.895488 17.3482 1.99624C17.3482 2.27787 17.2892 2.54588 17.1835 2.78906C23.6126 3.68369 28.5779 9.21619 28.5779 15.8876V17.3781ZM15.352 1.33085C14.9851 1.33085 14.6866 1.62934 14.6866 1.99624C14.6866 2.36313 14.9851 2.66163 15.352 2.66163C15.7189 2.66163 16.0174 2.36313 16.0174 1.99624C16.0174 1.62934 15.7189 1.33085 15.352 1.33085ZM3.45684 15.8876C3.45684 9.32854 8.79298 3.99241 15.352 3.99241C21.5159 3.99241 26.5993 8.70512 27.1894 14.7165H22.6049C22.2374 14.7165 21.9395 15.0144 21.9395 15.3819C21.9395 15.7494 22.2374 16.0473 22.6049 16.0473H27.2471V17.378H3.45684V15.8876ZM21.2108 21.7555C21.3007 21.7021 21.3323 21.6239 21.3046 21.5231C21.2769 21.4218 21.2095 21.3705 21.1045 21.3704H19.3067L12.1378 25.3674C11.9178 25.49 11.6473 25.4779 11.4391 25.3361C11.2309 25.1943 11.1207 24.947 11.1543 24.6973L11.4694 22.359L11.4713 22.3457C11.5099 22.0979 11.4412 21.8564 11.278 21.6659C11.1148 21.4754 10.8868 21.3705 10.636 21.3705C10.2343 21.3705 9.88563 21.6563 9.80687 22.0501L9.1711 25.2292C9.12853 25.4422 8.98463 25.621 8.78574 25.7082C7.06794 26.461 7.22021 28.6118 7.22194 28.6335C7.2414 28.8757 7.12725 29.1094 6.92418 29.2428L5.1769 30.3913L6.70802 32.428C6.70802 32.428 10.8313 29.6144 10.8884 29.5949C12.5445 29.0296 13.6673 27.9879 14.529 26.2172C14.5792 26.1139 14.6554 26.0253 14.75 25.9602C14.7892 25.9333 18.6933 23.2489 21.2108 21.7555ZM12.6409 21.3705H16.5739L12.6508 23.5578L12.7875 22.5428C12.8485 22.1412 12.7952 21.7364 12.6409 21.3705ZM1.33085 19.3743C1.33085 19.7412 1.62934 20.0397 1.99624 20.0397H28.7077C29.0746 20.0397 29.3731 19.7412 29.3731 19.3743C29.3731 19.0074 29.0746 18.709 28.7077 18.709H1.99624C1.62934 18.709 1.33085 19.0074 1.33085 19.3743Z" fill="black"/>
<path id="Path" d="M10.7746 6.79946C8.70018 7.7682 7.06752 9.55771 6.29515 11.7091C6.17104 12.0551 6.35073 12.4361 6.69658 12.5603C6.77088 12.5869 6.84672 12.5996 6.92136 12.5996C7.19422 12.5996 7.45015 12.4304 7.5477 12.1588C8.20101 10.3389 9.58239 8.82499 11.3377 8.00527C11.6707 7.84974 11.8145 7.45383 11.659 7.1208C11.5035 6.78778 11.1075 6.64394 10.7746 6.79946Z" fill="black"/>
</g>
</svg>
