<svg width="34" height="34" viewBox="0 0 34 34" fill="none" xmlns="http://www.w3.org/2000/svg">
<g id="settings-2">
<path id="Shape" fill-rule="evenodd" clip-rule="evenodd" d="M15.4133 34H18.5867C19.6591 34 20.5643 33.1968 20.6933 32.1343L21.0318 29.4709C21.7076 29.2528 22.3592 28.9822 22.9783 28.6648L25.0963 30.3096C25.9519 30.9754 27.1618 30.8975 27.8998 30.1367L30.1311 27.9055C30.8989 27.1603 30.9768 25.9519 30.311 25.0934L28.6663 22.9769C28.9822 22.3578 29.2528 21.7062 29.4723 21.0304L32.13 20.6918C33.1968 20.5643 34 19.6591 34 18.5867V15.4133C34 14.3409 33.1968 13.4357 32.1357 13.3068L29.4723 12.9682C29.2542 12.2924 28.9836 11.6407 28.6663 11.0217L30.311 8.90375C30.9754 8.04667 30.8989 6.83825 30.1382 6.10017L27.9069 3.86892C27.1618 3.10108 25.9548 3.02458 25.0948 3.689L22.9783 5.33375C22.3592 5.01783 21.7076 4.74725 21.0304 4.52767L20.6918 1.87C20.5643 0.80325 19.6591 0 18.5867 0H15.4133C14.3409 0 13.4357 0.80325 13.3082 1.86575L12.9696 4.52908C12.2924 4.74867 11.6407 5.01925 11.0217 5.33517L8.90517 3.689C8.0495 3.026 6.83967 3.10108 6.10158 3.86183L3.87033 6.09308C3.1025 6.83825 3.02458 8.04808 3.69042 8.90658L5.33375 11.0231C5.01783 11.6422 4.74725 12.2938 4.52767 12.9696L1.87 13.3082C0.80325 13.4357 0 14.3409 0 15.4133V18.5867C0 19.6591 0.80325 20.5643 1.86575 20.6947L4.52908 21.0333C4.74725 21.709 5.01783 22.3607 5.33517 22.9797L3.69042 25.0977C3.026 25.9548 3.1025 27.1632 3.86325 27.9013L6.0945 30.1325C6.83967 30.8989 8.04808 30.9754 8.90658 30.311L11.0231 28.6663C11.6422 28.9822 12.2938 29.2528 12.9696 29.4723L13.3082 32.13C13.4357 33.1968 14.3409 34 15.4133 34ZM11.2965 27.2042C11.1888 27.1447 11.0684 27.115 10.9508 27.115C10.7964 27.115 10.6434 27.166 10.5145 27.2623L8.03533 29.189C7.74633 29.41 7.34825 29.3902 7.10033 29.1337L4.85492 26.8883C4.60558 26.6475 4.58575 26.248 4.80817 25.9618L6.73483 23.4827C6.9105 23.2588 6.93317 22.9514 6.79433 22.7035C6.358 21.9229 6.00667 21.0772 5.75167 20.1903C5.67375 19.9183 5.44142 19.7186 5.16092 19.6832L2.03858 19.2851C1.69008 19.244 1.41667 18.9366 1.41667 18.5867V15.4133C1.41667 15.0634 1.69008 14.756 2.04567 14.7135L5.16233 14.3168C5.44283 14.2814 5.67517 14.0817 5.75308 13.8097C6.00808 12.9228 6.358 12.0771 6.79575 11.2965C6.93458 11.0486 6.9105 10.7412 6.73625 10.5173L4.80958 8.03817C4.58858 7.752 4.60842 7.3525 4.86483 7.10317L7.11025 4.85633C7.3525 4.607 7.75058 4.58717 8.03675 4.80958L10.5159 6.73625C10.7412 6.90908 11.0486 6.93458 11.2965 6.79433C12.0743 6.35942 12.92 6.00808 13.8097 5.75308C14.0817 5.67375 14.2814 5.44142 14.3168 5.16092L14.7149 2.03858C14.756 1.69008 15.0634 1.41667 15.4133 1.41667H18.5867C18.9366 1.41667 19.244 1.69008 19.2879 2.04708L19.6846 5.16375C19.72 5.44425 19.9198 5.67658 20.1917 5.7545C21.0814 6.01092 21.9272 6.36083 22.7049 6.79717C22.9528 6.936 23.2602 6.91192 23.4855 6.73767L25.9647 4.811C26.2508 4.58858 26.6518 4.60842 26.8997 4.86625L29.1451 7.11167C29.3944 7.3525 29.4143 7.752 29.1918 8.03817L27.2652 10.5173C27.0895 10.7412 27.0668 11.0486 27.2057 11.2965C27.642 12.0771 27.9933 12.9228 28.2483 13.8097C28.3263 14.0817 28.5586 14.2814 28.8391 14.3168L31.9614 14.7149C32.3099 14.756 32.5833 15.0634 32.5833 15.4133V18.5867C32.5833 18.9366 32.3099 19.244 31.9543 19.2879L28.8377 19.6846C28.5572 19.72 28.3248 19.9198 28.2469 20.1917C27.9919 21.0786 27.6406 21.9243 27.2042 22.7049C27.0654 22.9528 27.0895 23.2603 27.2638 23.4841L29.1904 25.9632C29.4114 26.2494 29.3916 26.6489 29.1352 26.8982L26.8897 29.1437C26.6461 29.3944 26.2466 29.4128 25.9618 29.1918L23.4827 27.2652C23.2603 27.0909 22.9514 27.0668 22.7035 27.2057C21.9229 27.642 21.0772 27.9933 20.1903 28.2483C19.9183 28.3263 19.7186 28.5586 19.6832 28.8391L19.2851 31.9614C19.244 32.3099 18.9366 32.5833 18.5867 32.5833H15.4133C15.0634 32.5833 14.756 32.3099 14.7135 31.9543L14.3168 28.8377C14.2814 28.5572 14.0817 28.3248 13.8097 28.2469C12.9228 27.9919 12.0771 27.6406 11.2965 27.2042Z" fill="black"/>
<path id="Shape_2" fill-rule="evenodd" clip-rule="evenodd" d="M10.5093 16.6909C10.5093 20.4404 13.5598 23.4909 17.3093 23.4909C21.0588 23.4909 24.1093 20.4404 24.1093 16.6909C24.1093 12.9414 21.0588 9.89091 17.3093 9.89091C13.5598 9.89091 10.5093 12.9414 10.5093 16.6909ZM11.8693 16.6909C11.8693 13.6907 14.3091 11.2509 17.3093 11.2509C20.3094 11.2509 22.7493 13.6907 22.7493 16.6909C22.7493 19.6911 20.3094 22.1309 17.3093 22.1309C14.3091 22.1309 11.8693 19.6911 11.8693 16.6909Z" fill="black"/>
</g>
</svg>
