<svg width="30" height="31" viewBox="0 0 30 31" fill="none" xmlns="http://www.w3.org/2000/svg">
<g id="planting">
<g id="g3561">
<g id="g3563">
<g id="g3565 Clipped">
<mask id="mask0_0_5114" style="mask-type:luminance" maskUnits="userSpaceOnUse" x="0" y="0" width="30" height="31">
<path id="path3567" fill-rule="evenodd" clip-rule="evenodd" d="M0 0.532593L30 0.532593L30 30.5326L0 30.5326L0 0.532593Z" fill="white"/>
</mask>
<g mask="url(#mask0_0_5114)">
<g id="g3565">
<g id="g3571">
<path id="path3573" d="M17.4917 18.2172C17.5301 17.5013 17.8012 16.2474 19.0736 15.1205C22.9475 11.69 27.8118 9.17755 27.8118 9.17755" stroke="black" stroke-linecap="round" stroke-linejoin="round"/>
</g>
<g id="g3575">
<path id="path3577" d="M17.4798 18.2168C17.437 17.4974 17.1585 16.2357 15.8992 15.1205C12.0253 11.6899 7.20361 9.18967 7.20361 9.18967" stroke="black" stroke-linecap="round" stroke-linejoin="round"/>
</g>
<g id="g3579">
<path id="path3581" d="M17.957 18.2168L17.957 0.972012" stroke="black" stroke-linecap="round" stroke-linejoin="round"/>
</g>
<g id="g3583">
<path id="path3585" d="M16.061 24.5186L20.9308 23.5186" stroke="black" stroke-linecap="round" stroke-linejoin="round"/>
</g>
<g id="g3587">
<path id="path3589" d="M16.061 24.5186L20.9308 23.5186" stroke="black" stroke-linecap="round" stroke-linejoin="round"/>
</g>
<g id="g3591">
<path id="path3593" d="M6.03952 25.0599L7.89377 28.2716C8.1203 28.6639 7.98588 29.1655 7.59354 29.3921L6.56985 29.9831C6.17744 30.2097 5.67582 30.0752 5.44936 29.6828L1.71453 23.214C1.48801 22.8217 1.62243 22.32 2.01477 22.0935L3.03846 21.5024C3.4308 21.2759 3.93248 21.4103 4.15895 21.8027L5.01014 23.2769" stroke="black" stroke-linecap="round" stroke-linejoin="round"/>
</g>
<g id="g3595">
<path id="path3597" d="M7.73094 27.9893L8.76857 27.0689C9.10947 26.7665 9.58473 26.6666 10.0186 26.806L13.5827 27.9516C13.975 28.1058 14.3956 28.1638 14.8125 28.121L21.9078 27.393C22.3498 27.3477 22.7749 27.1903 23.1468 26.9345L28.0446 23.5652C28.4377 23.1972 28.5107 22.5787 28.2149 22.1205C27.8912 21.6191 27.2442 21.4874 26.7668 21.8257L23.6056 23.4873C22.7731 23.9249 21.8608 24.1681 20.9311 24.2005L20.9719 23.5262C20.895 22.7118 20.3002 22.0582 19.5314 21.9435L15.9983 21.5147C15.1832 21.3931 14.776 21.1053 14.0654 20.6671C13.3721 20.2395 12.083 19.7196 11.3847 19.5105C10.1588 19.1433 8.83402 19.316 7.71775 19.9419L4.21777 21.9044" stroke="black" stroke-linecap="round" stroke-linejoin="round"/>
</g>
<g id="g3599">
<path id="path3601" d="M25.8973 13.2565C27.2703 11.8595 27.7368 10.1352 27.8796 9.40708C27.9154 9.22462 27.7401 9.05124 27.5242 9.0554C25.8611 9.0871 19.7045 9.56763 19.0361 14.9167C19.0158 15.0791 19.1605 15.2324 19.351 15.2499C21.4486 15.4436 23.0381 15.093 24.2413 14.4747" stroke="black" stroke-linecap="round" stroke-linejoin="round"/>
</g>
<g id="g3603">
<path id="path3605" fill-rule="evenodd" clip-rule="evenodd" d="M7.50116 9.0554C9.16429 9.0871 15.3209 9.56763 15.9893 14.9167C16.0096 15.0791 15.8649 15.2324 15.6744 15.25C8.88761 15.8766 7.42007 10.8051 7.14579 9.40708C7.10993 9.22468 7.28524 9.0513 7.50116 9.0554Z" stroke="black" stroke-linecap="round" stroke-linejoin="round"/>
</g>
<g id="g3607">
<path id="path3609" fill-rule="evenodd" clip-rule="evenodd" d="M17.6858 1.08272C17.5921 0.935124 17.3814 0.935124 17.2877 1.08272C16.4182 2.45264 13.1843 8.19887 17.4797 11.9172H17.4938C21.7892 8.19887 18.5553 2.45264 17.6858 1.08272Z" stroke="black" stroke-linecap="round" stroke-linejoin="round"/>
</g>
<g id="g3611">
<path id="path3613" d="M26.1327 22.1589L24.0629 20.5083C20.5905 17.7393 15.7565 17.4798 12.0288 19.7298" stroke="black" stroke-linecap="round" stroke-linejoin="round"/>
</g>
</g>
</g>
</g>
</g>
</g>
</g>
</svg>
